FILE "Cubecat (RAHash Fix) (Aftermarket).iso" BINARY
  TRACK 01 MODE1/2048
      INDEX 01 00:00:00
      POSTGAP 00:02:00
FILE "Cubecat (RAHash Fix) (Aftermarket) (Track 1).wav" WAVE
  TRACK 02 AUDIO
    PREGAP 00:02:00
    INDEX 01 00:00:00
FILE "Cubecat (RAHash Fix) (Aftermarket) (Track 2).wav" WAVE
  TRACK 03 AUDIO
    INDEX 01 00:00:00
FILE "Cubecat (RAHash Fix) (Aftermarket) (Track 3).wav" WAVE
  TRACK 04 AUDIO
    INDEX 01 00:00:00
